<svg width="140" height="18" viewBox="0 0 140 18" fill="none" xmlns="http://www.w3.org/2000/svg">
<path fill-rule="evenodd" clip-rule="evenodd" d="M6.6479 2.85004L21.0516 18H17.2613L13.4123 13.968L9.62201 18H0L8.63049 8.95891L2.7991 2.85004H6.6479ZM10.555 10.9749L5.13169 16.656H7.05609L11.4881 11.9522L10.555 10.9749ZM9.72038 5.99998e-05L13.5108 3.96935L17.3595 5.99998e-05H26.9232L18.2925 8.97693L24.4738 15.4502H20.6835L5.87173 5.99998e-05H9.72038ZM21.733 1.34346H19.8669L15.4351 5.98459L16.3681 6.96169L21.733 1.34346ZM49.0598 5.99998e-05V18H64.0171V13.553H53.748V11.153H64.0171V6.70594H53.748V4.44709H64.0171V5.99998e-05H49.0598ZM78.2427 5.99998e-05L74.6652 5.29414L71.2087 5.99998e-05H65.8726L72.0577 8.96478L65.812 18H71.0268L74.6652 12.6354L78.5458 18H83.7607L77.1512 9.03528L83.3362 5.99998e-05H78.2427ZM111.471 5.99998e-05L105.299 18H109.833L114.242 4.72939L118.651 18H123.248L117.076 5.99998e-05H111.471ZM125.043 5.99998e-05V18H140V13.553H129.739V5.99998e-05H125.043ZM98.1986 5.99998e-05L94.5635 8.47068L90.9286 5.99998e-05H85.5555V18H90.257V6.91759L94.5635 16.0236L98.8701 6.91759V18H103.504V5.99998e-05H98.1986ZM32.3077 0V4.42963H37.2213C40.5449 4.42963 42.1346 6.11713 42.1346 8.99997C42.1346 11.8828 40.5449 13.5703 37.1489 13.5703H32.3077V17.9999H37.438C43.7243 17.9999 47.2649 14.7656 47.2649 8.99997C47.2649 3.23429 43.7966 0 37.438 0H32.3077Z" fill="black" style="fill:black;fill-opacity:1;"/>
</svg>
